Coordinates
version=1
nRows=15
nColumns=26
inDegrees=yes

Units are S.I. units (second, meters, Newtons, ...)
Angles are in degrees.

endheader
time	pelvis_tilt	pelvis_list	pelvis_rotation	pelvis_tx	pelvis_ty	pelvis_tz	hip_flexion_r	hip_adduction_r	hip_rotation_r	knee_angle_r	knee_angle_r_beta	ankle_angle_r	subtalar_angle_r	mtp_angle_r	hip_flexion_l	hip_adduction_l	hip_rotation_l	knee_angle_l	knee_angle_l_beta	ankle_angle_l	subtalar_angle_l	mtp_angle_l	lumbar_extension	lumbar_bending	lumbar_rotation
      0.82499999999999996000	      6.60857196101435650000	     -3.97784560925173290000	      1.22210498530016550000	      0.95402790517803460000	      1.01643767975848910000	      0.20365074230805175000	     -0.78960853465761527000	      7.54739872712957100000	     -3.17520380762528910000	     12.89183459238374100000	     12.89183459238374100000	      4.59515650248886140000	      0.00000000000000000000	      0.00000000000000000000	     13.49659750542117300000	    -10.57237335140367700000	     -4.14989217683788340000	     66.41212450986763800000	     66.41212450986763800000	      9.06382600001023420000	      0.00000000000000000000	      0.00000000000000000000	    -18.24190884854517900000	      5.13649432150517170000	      5.46717295277413310000
      0.83333333333333337000	      6.55776620415552980000	     -3.80789997276970690000	      1.15992704350384070000	      0.96223546409440575000	      1.01729721829182960000	      0.20420632436626590000	     -1.51300590819921110000	      7.42042400783666610000	     -2.99290225470756520000	     12.48009384460994100000	     12.48009384460994100000	      4.76214750839622260000	      0.00000000000000000000	      0.00000000000000000000	     14.45652703433504800000	    -10.36090588458572600000	     -4.38475435707538530000	     65.51507656576328000000	     65.51507656576328000000	      9.32883456197270890000	      0.00000000000000000000	      0.00000000000000000000	    -18.22810090407751100000	      4.92622195098711120000	      5.50796186478085840000
      0.84166666666666667000	      6.84257343788945870000	     -3.41004609583696540000	      0.91375526597892953000	      0.97034076598440200000	      1.01874109335989500000	      0.20516068678620772000	     -2.77757946343058170000	      7.06872590406401800000	     -2.40355759688466500000	     11.63790542370837500000	     11.63790542370837500000	      4.58664722513128440000	      0.00000000000000000000	      0.00000000000000000000	     14.89082852542062000000	     -9.92602011745526800000	     -4.90697887421557240000	     64.27875911379973700000	     64.27875911379973700000	      9.43745911163592940000	      0.00000000000000000000	      0.00000000000000000000	    -18.65641967294257200000	      4.37178458232891030000	      5.65700220626633680000
      0.84999999999999998000	      6.73396593980812770000	     -3.24151303296718040000	      0.83092118137040893000	      0.97827768318865393000	      1.01937693663523370000	      0.20578527303766667000	     -3.40969498165823560000	      6.94085226856782530000	     -2.30561697402321200000	     11.17218171620390700000	     11.17218171620390700000	      4.75243532698965780000	      0.00000000000000000000	      0.00000000000000000000	     15.95461135538631400000	     -9.68042950651344290000	     -5.14594155645460920000	     63.20548418583788200000	     63.20548418583788200000	      9.45919575022164060000	      0.00000000000000000000	      0.00000000000000000000	    -18.62120050175667900000	      4.15346356978571850000	      5.69080199394972030000
      0.85833333333333328000	      6.64545483029770260000	     -3.02842700109291660000	      0.69519630343331706000	      0.98620245384262228000	      1.01999236429225170000	      0.20643163994469907000	     -4.05233288140435110000	      6.75309184068496560000	     -2.18072524233017660000	     10.76329215320578000000	     10.76329215320578000000	      4.87136148654069960000	      0.00000000000000000000	      0.00000000000000000000	     16.80954216271480900000	     -9.40325791185388660000	     -5.48172769330492570000	     61.79069160402642800000	     61.79069160402642800000	      9.44743883900048150000	      0.00000000000000000000	      0.00000000000000000000	    -18.62231136255355300000	      3.88230606615969620000	      5.76039930907264440000
      0.86666666666666670000	      6.69198160560637410000	     -2.81037604436268350000	      0.47754284168773814000	      0.99408491003205102000	      1.02069625537673800000	      0.20707445252794748000	     -4.89439313964963670000	      6.55530797074257790000	     -1.83725969150325770000	     10.24589701646080000000	     10.24589701646080000000	      4.92526252095342800000	      0.00000000000000000000	      0.00000000000000000000	     17.33803807980653700000	     -9.15060188091084110000	     -5.98657285162246390000	     60.06305755070416600000	     60.06305755070416600000	      9.33623991268772540000	      0.00000000000000000000	      0.00000000000000000000	    -18.79494581597293000000	      3.57619663558641500000	      5.85151285163733710000
      0.87500000000000000000	      6.48676948394459350000	     -2.73361212002173470000	      0.40259007430356020000	      1.00203261070994070000	      1.02085399500205540000	      0.20738326854528771000	     -5.46352175208736580000	      6.50982698991409860000	     -1.60903150748338590000	      9.72061535683776160000	      9.72061535683776160000	      5.16342208510897200000	      0.00000000000000000000	      0.00000000000000000000	     18.19725923101845300000	     -8.97795339511531760000	     -6.19172632371559840000	     58.37405085795619200000	     58.37405085795619200000	      9.22141484914178560000	      0.00000000000000000000	      0.00000000000000000000	    -18.65557174225183300000	      3.50094670174245600000	      5.86249084336773940000
      0.88333333333333330000	      6.38944973132456260000	     -2.60646131694438620000	      0.19897008202912592000	      1.00986118241512930000	      1.02102102778557560000	      0.20799893347578180000	     -6.14623935551797020000	      6.39997691414148310000	     -1.25852185020469710000	      9.18918228951135950000	      9.18918228951135950000	      5.26898948478435700000	      0.00000000000000000000	      0.00000000000000000000	     18.79748264017908000000	     -8.81863798255574060000	     -6.61280173762694010000	     56.42457825814044300000	     56.42457825814044300000	      8.88832123198948660000	      0.00000000000000000000	      0.00000000000000000000	    -18.66998648603494000000	      3.30342002473068110000	      5.91683920862858590000
      0.89166666666666661000	      6.38948237701954550000	     -2.36790687490739280000	     -0.03277654516449130000	      1.01780404693784930000	      1.02140015594404270000	      0.20833837657369661000	     -6.91405692374515720000	      6.12566576748434160000	     -1.00477647250846290000	      8.70032005271075800000	      8.70032005271075800000	      5.38308516904267890000	      0.00000000000000000000	      0.00000000000000000000	     19.15093007899846400000	     -8.48857664789129270000	     -7.07512220362864590000	     54.18076763307062300000	     54.18076763307062300000	      8.48854345953918710000	      0.00000000000000000000	      0.00000000000000000000	    -18.78490319661361600000	      3.00763705032448090000	      6.01560879822688670000
      0.90000000000000002000	      6.43328037649753880000	     -2.30437326771417710000	     -0.23753226532349866000	      1.02560268773944640000	      1.02157407861183500000	      0.20877951103720757000	     -7.70674079282142270000	      6.05382748695700720000	     -0.76751547758066097000	      8.23963802355018160000	      8.23963802355018160000	      5.45757310676388040000	      0.00000000000000000000	      0.00000000000000000000	     19.47041052388851400000	     -8.40784108625465800000	     -7.65076487993316870000	     51.92688644776698200000	     51.92688644776698200000	      7.96681893646107840000	      0.00000000000000000000	      0.00000000000000000000	    -18.97866098844413000000	      2.90493283228952580000	      6.15299255642998850000
      0.90833333333333333000	      6.21991573662307840000	     -2.40778531399204620000	     -0.29314560780952836000	      1.03314491821721970000	      1.02114552936194000000	      0.20887410562205297000	     -8.12802781543538090000	      6.15594706612372540000	     -0.67393724764406260000	      7.90211876406626420000	      7.90211876406626420000	      5.57969500409827110000	      0.00000000000000000000	      0.00000000000000000000	     20.11092448794578800000	     -8.38511752820937420000	     -7.89886716327579740000	     49.59135802641597500000	     49.59135802641597500000	      7.47228925937512490000	      0.00000000000000000000	      0.00000000000000000000	    -18.89163172865072200000	      3.04439689430334590000	      6.15898206926169320000
      0.91666666666666663000	      6.20006801754893910000	     -2.32474419392512790000	     -0.48757833252983296000	      1.04076416227616050000	      1.02092405631847270000	      0.20913989798965033000	     -8.78464778743484230000	      6.04353849657512220000	     -0.53883561107434597000	      7.56473498033773330000	      7.56473498033773330000	      5.74477053658926540000	      0.00000000000000000000	      0.00000000000000000000	     20.30506069325376100000	     -8.18022050026947060000	     -8.39454484637140830000	     46.89346315640961600000	     46.89346315640961600000	      6.84355711442187160000	      0.00000000000000000000	      0.00000000000000000000	    -19.04229696549897700000	      2.92415561412550410000	      6.23616237239637620000
      0.92499999999999993000	      6.09659882169385090000	     -2.33875759672025920000	     -0.71150195493947488000	      1.04852181761374740000	      1.02043233049882360000	      0.20942689496363914000	     -9.38419561308355550000	      6.02923104494063460000	     -0.29034143025108317000	      7.17827268863661950000	      7.17827268863661950000	      5.87637767199353260000	      0.00000000000000000000	      0.00000000000000000000	     20.59769804843993400000	     -8.09305370203182230000	     -8.80774882619519950000	     44.24737637566423800000	     44.24737637566423800000	      6.23717616161916410000	      0.00000000000000000000	      0.00000000000000000000	    -19.08242557690216000000	      2.91440939295081010000	      6.42391302437552620000
      0.93333333333333335000	      5.76680473021532690000	     -2.45305189957663750000	     -0.91541456500551466000	      1.05611577348355180000	      1.01941118238651060000	      0.20958874913416445000	     -9.66748851156362930000	      6.12771605553160370000	     -0.12797474227049838000	      6.91372259568645740000	      6.91372259568645740000	      6.00342807998678380000	      0.00000000000000000000	      0.00000000000000000000	     21.08101581114051400000	     -8.08496136561167060000	     -9.18365744838589390000	     41.45377966959375700000	     41.45377966959375700000	      5.57815748313507600000	      0.00000000000000000000	      0.00000000000000000000	    -18.89233764799510200000	      3.04313070691948000000	      6.57216540274897730000
      0.94166666666666665000	      5.64346307303660930000	     -2.45603585443547030000	     -1.18508767578540340000	      1.06362048054038480000	      1.01866939939998160000	      0.20985031538607110000	    -10.12536074842615400000	      6.07081768223500880000	     -0.05509653193786603200	      6.72821832368309100000	      6.72821832368309100000	      6.23755360843397530000	      0.00000000000000000000	      0.00000000000000000000	     21.19713569961180300000	     -7.98454113132160610000	     -9.79668472987802910000	     38.43964628940817400000	     38.43964628940817400000	      4.77228398349543600000	      0.00000000000000000000	      0.00000000000000000000	    -18.94587220646842600000	      3.02392983616197420000	      6.71867810183819450000
